<mxfile host="app.diagrams.net" modified="2024-01-17T21:35:10.517Z" agent="Mozilla/5.0 (Windows NT 10.0; Win64; x64) AppleWebKit/537.36 (KHTML, like Gecko) Chrome/120.0.0.0 Safari/537.36" etag="3D_kr2E_reeQIcQrDvG9" version="22.1.21" type="github">
  <diagram name="Page-1" id="RTDrvzLiMqNh0Hz9u7tO">
    <mxGraphModel dx="1050" dy="557" grid="1" gridSize="10" guides="1" tooltips="1" connect="1" arrows="1" fold="1" page="1" pageScale="1" pageWidth="850" pageHeight="1100" math="0" shadow="0">
      <root>
        <mxCell id="0" />
        <mxCell id="1" parent="0" />
        <mxCell id="k9KFmEXwrEPqWjRfYiHs-1" value="&lt;p style=&quot;margin:0px;margin-top:4px;text-align:center;text-decoration:underline;&quot;&gt;&lt;b&gt;lp:LoanProduct&lt;/b&gt;&lt;/p&gt;&lt;hr&gt;&lt;p style=&quot;margin:0px;margin-left:8px;&quot;&gt;productId = value1&lt;br&gt;name = value2&lt;br&gt;intrestRate = value3&lt;/p&gt;&lt;p style=&quot;margin:0px;margin-left:8px;&quot;&gt;maximumLoanAmount =&amp;nbsp;&lt;/p&gt;" style="verticalAlign=top;align=left;overflow=fill;fontSize=12;fontFamily=Helvetica;html=1;whiteSpace=wrap;" vertex="1" parent="1">
          <mxGeometry x="310" y="100" width="160" height="90" as="geometry" />
        </mxCell>
        <mxCell id="k9KFmEXwrEPqWjRfYiHs-2" value="&lt;p style=&quot;margin:0px;margin-top:4px;text-align:center;text-decoration:underline;&quot;&gt;&lt;b&gt;la:LoanApplication&lt;/b&gt;&lt;/p&gt;&lt;hr&gt;&lt;p style=&quot;margin:0px;margin-left:8px;&quot;&gt;applicationId = value1&lt;br&gt;amount = value2&lt;br&gt;status = value3&lt;/p&gt;&lt;p style=&quot;margin:0px;margin-left:8px;&quot;&gt;intrestRate =&lt;/p&gt;" style="verticalAlign=top;align=left;overflow=fill;fontSize=12;fontFamily=Helvetica;html=1;whiteSpace=wrap;" vertex="1" parent="1">
          <mxGeometry x="310" y="280" width="160" height="90" as="geometry" />
        </mxCell>
        <mxCell id="k9KFmEXwrEPqWjRfYiHs-3" value="" style="endArrow=none;html=1;edgeStyle=orthogonalEdgeStyle;rounded=0;exitX=0.5;exitY=1;exitDx=0;exitDy=0;entryX=0.5;entryY=0;entryDx=0;entryDy=0;" edge="1" parent="1" source="k9KFmEXwrEPqWjRfYiHs-1" target="k9KFmEXwrEPqWjRfYiHs-2">
          <mxGeometry relative="1" as="geometry">
            <mxPoint x="380" y="260" as="sourcePoint" />
            <mxPoint x="540" y="260" as="targetPoint" />
          </mxGeometry>
        </mxCell>
      </root>
    </mxGraphModel>
  </diagram>
</mxfile>
